<!-- 基础图形 -->
<!-- 圆形 -->
<svg width="24" height="24" viewBox="0 0 24 24">
  <circle cx="12" cy="12" r="10" stroke="currentColor" stroke-width="2" fill="none"/>
</svg>

<!-- 正方形 -->
<svg width="24" height="24" viewBox="0 0 24 24">
  <rect x="3" y="3" width="18" height="18" rx="2" stroke="currentColor" stroke-width="2" fill="none"/>
</svg>

<!-- 三角形 -->
<svg width="24" height="24" viewBox="0 0 24 24">
  <path d="M12 3L22 20H2L12 3Z" stroke="currentColor" stroke-width="2" fill="none"/>
</svg>

<!-- 五边形 -->
<svg width="24" height="24" viewBox="0 0 24 24">
  <path d="M12 2L22 9.27L19.1 20H4.9L2 9.27L12 2Z" stroke="currentColor" stroke-width="2" fill="none"/>
</svg>

<!-- 六边形 -->
<svg width="24" height="24" viewBox="0 0 24 24">
  <path d="M12 2L21.5 7V17L12 22L2.5 17V7L12 2Z" stroke="currentColor" stroke-width="2" fill="none"/>
</svg>

<!-- 八边形 -->
<svg width="24" height="24" viewBox="0 0 24 24">
  <path d="M7.86 2H16.14L22 7.86V16.14L16.14 22H7.86L2 16.14V7.86L7.86 2Z" stroke="currentColor" stroke-width="2" fill="none"/>
</svg> 