<?xml version="1.0" standalone="no"?>
  <!DOCTYPE svg PUBLIC "-//W3C//DTD SVG 1.1//EN" "http://www.w3.org/Graphics/SVG/1.1/DTD/svg11.dtd">
  <svg t="1719802574917" class="icon" viewBox="0 0 1024 1024" version="1.1" xmlns="http://www.w3.org/2000/svg" p-id="5011" xmlns:xlink="http://www.w3.org/1999/xlink" width="200" height="200"><path d="M512 112.64c-220.8 0-399.36 179.2-399.36 400 0 160.64 96 305.28 243.84 368 204.16 83.84 437.76-14.08 521.6-218.24 82.56-200.96-10.88-431.36-210.56-517.76-49.28-21.76-101.76-32.64-155.52-32m0-48.64c247.68 0 448 200.32 448 448s-200.32 448-448 448-448-200.32-448-448 200.32-448 448-448z" p-id="5012"></path><path d="M440.1856 757.3632c-7.04 0-13.44-2.56-17.92-7.68l-50.56-50.56-50.56 50.56c-5.12 5.12-11.52 7.68-17.92 7.68-7.04 0-13.44-2.56-17.92-7.68-5.12-5.12-7.68-11.52-7.68-17.92 0-7.04 2.56-13.44 7.68-17.92l50.56-50.56-50.56-50.56c-5.12-5.12-7.68-11.52-7.68-18.56 0-7.04 2.56-13.44 7.68-17.92 5.12-5.12 11.52-7.68 17.92-7.68 7.04 0 13.44 2.56 17.92 7.68l50.56 50.56 50.56-50.56c5.12-5.12 11.52-7.68 17.92-7.68 7.04 0 13.44 2.56 17.92 7.68 5.12 5.12 7.68 11.52 7.68 17.92 0 7.04-2.56 13.44-7.68 17.92l-50.56 50.56 50.56 50.56c10.24 10.24 10.24 26.24 0 36.48-5.12 5.12-11.52 7.68-17.92 7.68zM371.0656 512.2432c-14.08 0-25.6-11.52-25.6-25.6v-71.68h-71.68c-14.08 0-25.6-11.52-25.6-25.6s11.52-25.6 25.6-25.6h71.68v-71.68c0-14.08 11.52-25.6 25.6-25.6s25.6 11.52 25.6 25.6v71.68h71.68c14.08 0 25.6 11.52 25.6 25.6s-11.52 25.6-25.6 25.6h-71.68v71.68c0 14.08-11.52 25.6-25.6 25.6zM598.9056 418.8032c-16 0-28.8-12.8-28.8-28.8s12.8-28.8 28.8-28.8h147.84c16 0 28.8 12.8 28.8 28.8s-12.8 28.8-28.8 28.8h-147.84zM598.9056 747.1232c-16 0-28.8-12.8-28.8-28.8s12.8-28.8 28.8-28.8h147.84c16 0 28.8 12.8 28.8 28.8s-12.8 28.8-28.8 28.8h-147.84zM598.9056 635.7632c-16 0-28.8-12.8-28.8-28.8s12.8-28.8 28.8-28.8h147.84c16 0 28.8 12.8 28.8 28.8s-12.8 28.8-28.8 28.8h-147.84z" p-id="5013" fill="currentColor"></path></svg>