<?xml version="1.0" standalone="no"?><!DOCTYPE svg PUBLIC "-//W3C//DTD SVG 1.1//EN" "http://www.w3.org/Graphics/SVG/1.1/DTD/svg11.dtd"><svg t="1721704107919" class="icon" viewBox="0 0 1024 1024" version="1.1" xmlns="http://www.w3.org/2000/svg" p-id="4378" xmlns:xlink="http://www.w3.org/1999/xlink" width="200" height="200"><path d="M356.42 330.8s-60-122-316.42-56.62c0 0 163.68 116 316.42 56.62z m1.64-44c34.4-126.4-98.74-206-98.74-206-7.64 148.4 98.74 206 98.74 206z m379.16 508.38s-31.08 48.9-15.78 94.52c15.22 45.06 109.1 78.58 109.1 78.58s-16.38-33.52 15.82-78.58 0-94.52 0-94.52z m-303.86-166.52l-68.18 41.22c-4.38 2.74-10.92 1.1-10.92-5.5L353.16 360c0-6.62-4.36-10-8.72-7.14-10.92 4.4-79.1 29.66-83.48 29.66h-92.2c-9.82 0-8.18 7.14-5.48 13.72h85.68a6.62 6.62 0 0 1 7.08 7.14V732c0 13.76-37.62 16.48-28.9 30.2l62.74 99.5c6.54 11.02 16.9-1.1 18-23.1a12.16 12.16 0 0 1 1.62-3.84l133.12-195.08c5.46-6-2.18-14.28-9.26-11.02z m542.86-269.82H721.44a6.64 6.64 0 0 1-7.12-7.16v-136.3a6.62 6.62 0 0 1 7.12-7.14h206.22c3.82-6.62 2.72-13.72-4.4-13.72H722a6.62 6.62 0 0 1-7.1-7.14c0-111.02-4.4-65.42 18-91.26 4.36-4.4 14.14-16.46 1.06-19.2L614.48 56c-5.44-1.1-8.18 1.1-8.18 7.14v123.1a6.6 6.6 0 0 1-7.08 7.14h-144c-8.18 0-8.18 7.14-4.4 13.72h148.42a6.6 6.6 0 0 1 7.08 7.14v136.34a6.6 6.6 0 0 1-7.08 7.16h-164.78c-9.82 0-8.74 15.38 1.08 15.38h540.68c9.82 1.1 10.92-14.28 0-14.28z m-472.46 192.88c-6.56-1.1-10.92 5.48-8.2 9.88 25.1 54.44 45.82 108.24 56.74 163.78 1.08 4.4 3.82 6.62 8.18 5.48 44.76-7.14 87.3-29.68 80.22-82.98-7.66-63.18-82.96-83.54-136.94-96.16z m468.62-42.32h-118.94c-4.34 0-6.52-2.2-7.08-6.6v-38.46l4.9-14.28a54.9 54.9 0 0 0 16.94-13.22c7.08-7.12 10.92-15.36 1.06-18.12l-7.08-1.1v-0.54l-29.44-3.84-86.22-12.66a7.54 7.54 0 0 0-6 1.12l-3.28-0.58v101.68a6.72 6.72 0 0 1-7.12 5.5H425.18c-8.18 0-8.18 8.24-5.44 12.64h310.4a6.72 6.72 0 0 1 7.12 5.48v240.72l109.1 0.54V528.62c0.56-3.84 2.74-6.6 7.1-6.6h123.3c3.8-4.38 2.72-12.62-4.38-12.62z" p-id="4379" fill="currentColor"></path></svg>