<?xml version="1.0" standalone="no"?><!DOCTYPE svg PUBLIC "-//W3C//DTD SVG 1.1//EN" "http://www.w3.org/Graphics/SVG/1.1/DTD/svg11.dtd"><svg t="1719988101085" class="icon" viewBox="0 0 1024 1024" version="1.1" xmlns="http://www.w3.org/2000/svg" p-id="5471" xmlns:xlink="http://www.w3.org/1999/xlink" width="200" height="200"><path d="M457.152 96a32 32 0 0 1 31.850667 28.928l0.149333 3.072v329.152a32 32 0 0 1-28.928 31.850667l-3.072 0.149333H128a32 32 0 0 1-31.850667-28.928l-0.149333-3.072v-191.850667a32 32 0 0 1 63.850667-3.093333l0.149333 3.093333v159.829334h265.130667V160H160v13.802667a32 32 0 0 1-28.928 31.872L128 205.802667a32 32 0 0 1-31.850667-28.906667L96 173.802667V128a32 32 0 0 1 28.928-31.850667L128 96h329.152zM96 576a32 32 0 0 1 28.928-31.850667L128 544h329.152a32 32 0 0 1 31.850667 28.928l0.149333 3.072v329.152a32 32 0 0 1-28.928 31.850667l-3.072 0.149333h-191.850667a32 32 0 0 1-3.093333-63.872l3.093333-0.128h159.829334V608H160v265.130667h13.802667a32 32 0 0 1 31.872 28.906666l0.128 3.093334a32 32 0 0 1-28.906667 31.850666l-3.093333 0.149334H128a32 32 0 0 1-31.850667-28.928l-0.149333-3.072V576zM928 457.152a32 32 0 0 1-28.928 31.850667l-3.072 0.149333H566.848a32 32 0 0 1-31.850667-28.928l-0.149333-3.072V128a32 32 0 0 1 28.928-31.850667l3.072-0.149333h191.850667a32 32 0 0 1 3.093333 63.850667l-3.093333 0.149333h-159.829334v265.152H864V159.978667l-13.802667 0.021333a32 32 0 0 1-31.872-28.928L818.197333 128a32 32 0 0 1 28.906667-31.850667l3.093333-0.149333H896a32 32 0 0 1 31.850667 28.928L928 128v329.152zM576 937.152a32 32 0 0 1-31.850667-28.928l-0.149333-3.072V576a32 32 0 0 1 28.928-31.850667L576 544h329.152a32 32 0 0 1 31.850667 28.928l0.149333 3.072v191.850667a32 32 0 0 1-63.872 3.072l-0.128-3.072v-159.829334H608v265.130667h265.130667v-13.824a32 32 0 0 1 28.906666-31.850667l3.093334-0.149333a32 32 0 0 1 31.850666 28.928l0.149334 3.072v45.824a32 32 0 0 1-28.928 31.850667l-3.072 0.149333H576z" fill="currentColor" p-id="5472"></path><path d="M318.272 385.877333V201.258667l-78.869333 6.485333v32.256h36.629333v145.877333zM800.448 384v-32.490667H730.24l-0.256-0.64 22.122667-26.496c16-17.322667 27.008-30.442667 33.002666-39.317333 5.994667-8.874667 9.002667-19.050667 9.002667-30.549333 0-17.173333-5.418667-30.656-16.256-40.448-10.837333-9.792-26.218667-14.677333-46.122667-14.677334-18.986667 0-34.261333 5.845333-45.76 17.557334-11.498667 11.712-17.045333 25.984-16.618666 42.816l0.256 0.746666h41.386666c0-8.32 1.792-15.189333 5.418667-20.565333a17.429333 17.429333 0 0 1 15.317333-8.064c6.997333 0 12.074667 2.069333 15.253334 6.186667 3.157333 4.138667 4.736 9.728 4.736 16.810666 0 4.906667-1.749333 10.709333-5.248 17.386667-3.498667 6.656-9.002667 14.250667-16.490667 22.741333l-56 61.504V384h126.506667zM784.448 832v-38.378667h18.389333v-32.746666h-18.389333v-110.869334h-42.24v0.362667l-74.88 117.248 2.496 26.026667h72.384V832h42.24z m-42.24-71.125333h-38.613333l33.237333-47.36 4.629333-9.386667 0.746667 0.128v56.618667zM286.08 834.624c19.84 0 36.138667-4.778667 48.938667-14.293333 12.8-9.557333 19.2-22.656 19.2-39.338667 0-10.325333-2.666667-19.093333-8-26.304-5.333333-7.210667-12.928-12.586667-22.762667-16.192a51.2 51.2 0 0 0 20.373333-16.362667 37.973333 37.973333 0 0 0 7.509334-22.762666c0-16.576-5.952-29.397333-17.813334-38.442667-11.882667-9.024-27.690667-13.546667-47.445333-13.546667-17.002667 0-31.424 4.48-43.306667 13.504-11.882667 8.981333-17.557333 20.736-17.066666 35.242667l0.256 0.746667h41.002666c0-5.077333 1.856-9.173333 5.546667-12.309334a20.330667 20.330667 0 0 1 13.568-4.693333c7.082667 0 12.714667 1.984 16.874667 5.930667a19.157333 19.157333 0 0 1 6.250666 14.442666c0 7.253333-2.048 12.928-6.122666 17.002667-4.074667 4.074667-9.92 6.122667-17.493334 6.122667h-20.010666v31.36h20.010666c8.405333 0 14.933333 2.048 19.562667 6.08 4.629333 4.053333 6.933333 10.474667 6.933333 19.306666a19.904 19.904 0 0 1-7.317333 15.701334c-4.864 4.202667-11.093333 6.314667-18.688 6.314666-6.336 0-11.52-1.962667-15.616-5.888a19.584 19.584 0 0 1-6.122667-14.741333h-41.130666l-0.256 0.746667c-0.426667 17.002667 5.717333 29.973333 18.368 38.933333 12.672 8.96 27.584 13.44 44.757333 13.44z" fill="currentColor" p-id="5473"></path></svg>