<?xml version="1.0" standalone="no"?><!DOCTYPE svg PUBLIC "-//W3C//DTD SVG 1.1//EN" "http://www.w3.org/Graphics/SVG/1.1/DTD/svg11.dtd"><svg t="1721287831169" class="icon" viewBox="0 0 1024 1024" version="1.1" xmlns="http://www.w3.org/2000/svg" p-id="20504" xmlns:xlink="http://www.w3.org/1999/xlink" width="200" height="200"><path d="M690.43953 332.921415 503.821225 519.578606 381.0736 396.825864c-8.740058-8.739035-22.946618-8.739035-31.686676 0-8.740058 8.741082-8.740058 22.948665 0 31.6877l122.753765 122.749672-35.180244 35.17922c-8.741082 8.741082-8.741082 22.949688 0 31.6877 8.739035 8.734942 22.942525 8.734942 31.68156 0l35.17922-35.17922 35.722596 35.716456c8.734942 8.738012 22.942525 8.738012 31.682583 0 8.740058-8.740058 8.740058-22.948665 0-31.68463l-35.716456-35.719526 186.612165-186.612165c8.740058-8.740058 8.740058-22.947641 0-31.6877C713.382055 324.180334 699.174472 324.180334 690.43953 332.921415L690.43953 332.921415zM510.544347 62.365396c-247.517303 0-448.158996 200.64067-448.158996 448.158996 0 247.517303 200.64067 448.16002 448.158996 448.16002 247.51935 0 448.161043-200.641693 448.161043-448.16002C958.70539 263.006066 758.063697 62.365396 510.544347 62.365396L510.544347 62.365396zM532.951683 912.39004 532.951683 801.826921c0-12.367679-10.037611-22.406313-22.407336-22.406313-12.368702 0-22.406313 10.038634-22.406313 22.406313l0 110.563118C284.718065 901.050784 119.031489 737.337141 108.453572 532.930705l110.789269 0c12.368702 0 22.406313-10.037611 22.406313-22.406313s-10.037611-22.406313-22.406313-22.406313L108.680746 488.11808c12.326746-202.973808 177.245843-368.076076 379.458311-379.595434l0 110.699218c0 12.368702 10.037611 22.406313 22.406313 22.406313 12.370749 0 22.407336-10.038634 22.407336-22.406313L532.952706 108.569718c202.258517 11.519358 367.177614 176.621627 379.505383 379.548362L801.847899 488.11808c-12.369725 0-22.406313 10.038634-22.406313 22.406313s10.037611 22.406313 22.406313 22.406313l110.789269 0C902.058229 737.337141 736.372675 901.050784 532.951683 912.39004L532.951683 912.39004zM532.951683 912.39004" fill="currentColor" p-id="20505"></path></svg>